<mxfile host="app.diagrams.net" modified="2023-09-21T06:44:21.114Z" agent="Mozilla/5.0 (Macintosh; Intel Mac OS X 10_15_7) AppleWebKit/537.36 (KHTML, like Gecko) Chrome/117.0.0.0 Safari/537.36" etag="U-Cr6l2n6h2MGNkmDqPF" version="21.6.6" type="device" pages="2">
  <diagram id="4WpAfqZd1xvFMUwdSWwF" name="Page-1">
    <mxGraphModel dx="2901" dy="1125" grid="1" gridSize="10" guides="1" tooltips="1" connect="1" arrows="1" fold="1" page="1" pageScale="1" pageWidth="827" pageHeight="1169" math="0" shadow="0">
      <root>
        <mxCell id="0" />
        <mxCell id="1" parent="0" />
        <mxCell id="kaxkpDlLBg27UVqNhbUt-45" value="" style="rounded=0;whiteSpace=wrap;html=1;sketch=1;hachureGap=4;jiggle=2;curveFitting=1;fontFamily=Architects Daughter;fontSource=https%3A%2F%2Ffonts.googleapis.com%2Fcss%3Ffamily%3DArchitects%2BDaughter;fontSize=20;" vertex="1" parent="1">
          <mxGeometry x="80" y="2650" width="1080" height="440" as="geometry" />
        </mxCell>
        <mxCell id="kaxkpDlLBg27UVqNhbUt-33" value="" style="rounded=0;whiteSpace=wrap;html=1;sketch=1;hachureGap=4;jiggle=2;curveFitting=1;fontFamily=Architects Daughter;fontSource=https%3A%2F%2Ffonts.googleapis.com%2Fcss%3Ffamily%3DArchitects%2BDaughter;fontSize=20;" vertex="1" parent="1">
          <mxGeometry x="190" y="2080" width="1060" height="440" as="geometry" />
        </mxCell>
        <mxCell id="kaxkpDlLBg27UVqNhbUt-27" value="" style="rounded=0;whiteSpace=wrap;html=1;sketch=1;hachureGap=4;jiggle=2;curveFitting=1;fontFamily=Architects Daughter;fontSource=https%3A%2F%2Ffonts.googleapis.com%2Fcss%3Ffamily%3DArchitects%2BDaughter;fontSize=20;" vertex="1" parent="1">
          <mxGeometry x="-45" y="1140" width="965" height="880" as="geometry" />
        </mxCell>
        <mxCell id="kaxkpDlLBg27UVqNhbUt-26" value="" style="rounded=0;whiteSpace=wrap;html=1;sketch=1;hachureGap=4;jiggle=2;curveFitting=1;fontFamily=Architects Daughter;fontSource=https%3A%2F%2Ffonts.googleapis.com%2Fcss%3Ffamily%3DArchitects%2BDaughter;fontSize=20;" vertex="1" parent="1">
          <mxGeometry x="-45" y="570" width="930" height="530" as="geometry" />
        </mxCell>
        <mxCell id="mxHuWwbCeUmmDX6fSX2f-11" style="edgeStyle=orthogonalEdgeStyle;rounded=0;sketch=1;hachureGap=4;jiggle=2;curveFitting=1;orthogonalLoop=1;jettySize=auto;html=1;entryX=0;entryY=0.5;entryDx=0;entryDy=0;fontFamily=Architects Daughter;fontSource=https%3A%2F%2Ffonts.googleapis.com%2Fcss%3Ffamily%3DArchitects%2BDaughter;fontSize=16;" parent="1" source="mxHuWwbCeUmmDX6fSX2f-15" target="mxHuWwbCeUmmDX6fSX2f-16" edge="1">
          <mxGeometry relative="1" as="geometry">
            <Array as="points">
              <mxPoint x="20" y="700" />
              <mxPoint x="20" y="850" />
            </Array>
          </mxGeometry>
        </mxCell>
        <mxCell id="mxHuWwbCeUmmDX6fSX2f-12" value="deposit(swsteth)" style="edgeLabel;html=1;align=center;verticalAlign=middle;resizable=0;points=[];fontSize=20;fontFamily=Architects Daughter;" parent="mxHuWwbCeUmmDX6fSX2f-11" vertex="1" connectable="0">
          <mxGeometry x="0.0246" y="-2" relative="1" as="geometry">
            <mxPoint x="158" y="-2" as="offset" />
          </mxGeometry>
        </mxCell>
        <mxCell id="mxHuWwbCeUmmDX6fSX2f-13" style="edgeStyle=orthogonalEdgeStyle;rounded=0;sketch=1;hachureGap=4;jiggle=2;curveFitting=1;orthogonalLoop=1;jettySize=auto;html=1;fontFamily=Architects Daughter;fontSource=https%3A%2F%2Ffonts.googleapis.com%2Fcss%3Ffamily%3DArchitects%2BDaughter;fontSize=16;" parent="1" source="mxHuWwbCeUmmDX6fSX2f-15" target="mxHuWwbCeUmmDX6fSX2f-16" edge="1">
          <mxGeometry relative="1" as="geometry">
            <Array as="points">
              <mxPoint x="20" y="700" />
              <mxPoint x="20" y="940" />
              <mxPoint x="420" y="940" />
            </Array>
          </mxGeometry>
        </mxCell>
        <mxCell id="mxHuWwbCeUmmDX6fSX2f-14" value="commitOrder(size)" style="edgeLabel;html=1;align=center;verticalAlign=middle;resizable=0;points=[];fontSize=20;fontFamily=Architects Daughter;" parent="mxHuWwbCeUmmDX6fSX2f-13" vertex="1" connectable="0">
          <mxGeometry x="0.1306" relative="1" as="geometry">
            <mxPoint x="103" as="offset" />
          </mxGeometry>
        </mxCell>
        <mxCell id="kaxkpDlLBg27UVqNhbUt-29" style="edgeStyle=orthogonalEdgeStyle;rounded=0;sketch=1;hachureGap=4;jiggle=2;curveFitting=1;orthogonalLoop=1;jettySize=auto;html=1;fontFamily=Architects Daughter;fontSource=https%3A%2F%2Ffonts.googleapis.com%2Fcss%3Ffamily%3DArchitects%2BDaughter;fontSize=16;" edge="1" parent="1" source="mxHuWwbCeUmmDX6fSX2f-15" target="kaxkpDlLBg27UVqNhbUt-28">
          <mxGeometry relative="1" as="geometry" />
        </mxCell>
        <mxCell id="kaxkpDlLBg27UVqNhbUt-30" value="wrap(wsteth) -&amp;gt; swsteth" style="edgeLabel;html=1;align=center;verticalAlign=middle;resizable=0;points=[];fontSize=20;fontFamily=Architects Daughter;" vertex="1" connectable="0" parent="kaxkpDlLBg27UVqNhbUt-29">
          <mxGeometry x="-0.3316" y="1" relative="1" as="geometry">
            <mxPoint x="33" y="1" as="offset" />
          </mxGeometry>
        </mxCell>
        <mxCell id="mxHuWwbCeUmmDX6fSX2f-15" value="trader" style="shape=umlActor;verticalLabelPosition=bottom;verticalAlign=top;html=1;outlineConnect=0;sketch=1;hachureGap=4;jiggle=2;curveFitting=1;fontFamily=Architects Daughter;fontSource=https%3A%2F%2Ffonts.googleapis.com%2Fcss%3Ffamily%3DArchitects%2BDaughter;fontSize=20;" parent="1" vertex="1">
          <mxGeometry x="70" y="670" width="30" height="60" as="geometry" />
        </mxCell>
        <mxCell id="kaxkpDlLBg27UVqNhbUt-31" style="edgeStyle=orthogonalEdgeStyle;rounded=0;sketch=1;hachureGap=4;jiggle=2;curveFitting=1;orthogonalLoop=1;jettySize=auto;html=1;entryX=0.5;entryY=1;entryDx=0;entryDy=0;fontFamily=Architects Daughter;fontSource=https%3A%2F%2Ffonts.googleapis.com%2Fcss%3Ffamily%3DArchitects%2BDaughter;fontSize=16;" edge="1" parent="1" source="mxHuWwbCeUmmDX6fSX2f-16" target="kaxkpDlLBg27UVqNhbUt-28">
          <mxGeometry relative="1" as="geometry" />
        </mxCell>
        <mxCell id="kaxkpDlLBg27UVqNhbUt-32" value="integrates" style="edgeLabel;html=1;align=center;verticalAlign=middle;resizable=0;points=[];fontSize=20;fontFamily=Architects Daughter;" vertex="1" connectable="0" parent="kaxkpDlLBg27UVqNhbUt-31">
          <mxGeometry x="-0.0677" y="-3" relative="1" as="geometry">
            <mxPoint as="offset" />
          </mxGeometry>
        </mxCell>
        <mxCell id="mxHuWwbCeUmmDX6fSX2f-16" value="&lt;font style=&quot;font-size: 18px;&quot;&gt;bfp market&lt;/font&gt;" style="rounded=0;whiteSpace=wrap;html=1;sketch=1;hachureGap=4;jiggle=2;curveFitting=1;fontFamily=Architects Daughter;fontSource=https%3A%2F%2Ffonts.googleapis.com%2Fcss%3Ffamily%3DArchitects%2BDaughter;fontSize=20;" parent="1" vertex="1">
          <mxGeometry x="360" y="819.91" width="120" height="60" as="geometry" />
        </mxCell>
        <mxCell id="mxHuWwbCeUmmDX6fSX2f-17" style="edgeStyle=orthogonalEdgeStyle;rounded=0;sketch=1;hachureGap=4;jiggle=2;curveFitting=1;orthogonalLoop=1;jettySize=auto;html=1;entryX=1;entryY=0.5;entryDx=0;entryDy=0;fontFamily=Architects Daughter;fontSource=https%3A%2F%2Ffonts.googleapis.com%2Fcss%3Ffamily%3DArchitects%2BDaughter;fontSize=16;" parent="1" source="mxHuWwbCeUmmDX6fSX2f-19" target="mxHuWwbCeUmmDX6fSX2f-16" edge="1">
          <mxGeometry relative="1" as="geometry" />
        </mxCell>
        <mxCell id="mxHuWwbCeUmmDX6fSX2f-18" value="settleOrder(id)" style="edgeLabel;html=1;align=center;verticalAlign=middle;resizable=0;points=[];fontSize=20;fontFamily=Architects Daughter;" parent="mxHuWwbCeUmmDX6fSX2f-17" vertex="1" connectable="0">
          <mxGeometry x="0.2" y="2" relative="1" as="geometry">
            <mxPoint x="30" y="-2" as="offset" />
          </mxGeometry>
        </mxCell>
        <mxCell id="mxHuWwbCeUmmDX6fSX2f-19" value="keeper" style="shape=umlActor;verticalLabelPosition=bottom;verticalAlign=top;html=1;outlineConnect=0;sketch=1;hachureGap=4;jiggle=2;curveFitting=1;fontFamily=Architects Daughter;fontSource=https%3A%2F%2Ffonts.googleapis.com%2Fcss%3Ffamily%3DArchitects%2BDaughter;fontSize=20;" parent="1" vertex="1">
          <mxGeometry x="730" y="819.91" width="30" height="60" as="geometry" />
        </mxCell>
        <mxCell id="kaxkpDlLBg27UVqNhbUt-6" style="edgeStyle=orthogonalEdgeStyle;rounded=0;sketch=1;hachureGap=4;jiggle=2;curveFitting=1;orthogonalLoop=1;jettySize=auto;html=1;fontFamily=Architects Daughter;fontSource=https%3A%2F%2Ffonts.googleapis.com%2Fcss%3Ffamily%3DArchitects%2BDaughter;fontSize=16;" edge="1" parent="1" source="mxHuWwbCeUmmDX6fSX2f-22" target="mxHuWwbCeUmmDX6fSX2f-27">
          <mxGeometry relative="1" as="geometry" />
        </mxCell>
        <mxCell id="kaxkpDlLBg27UVqNhbUt-7" value="flag(id)" style="edgeLabel;html=1;align=center;verticalAlign=middle;resizable=0;points=[];fontSize=20;fontFamily=Architects Daughter;" vertex="1" connectable="0" parent="kaxkpDlLBg27UVqNhbUt-6">
          <mxGeometry x="-0.4826" y="5" relative="1" as="geometry">
            <mxPoint x="-19" as="offset" />
          </mxGeometry>
        </mxCell>
        <mxCell id="mxHuWwbCeUmmDX6fSX2f-22" value="flagger" style="shape=umlActor;verticalLabelPosition=bottom;verticalAlign=top;html=1;outlineConnect=0;sketch=1;hachureGap=4;jiggle=2;curveFitting=1;fontFamily=Architects Daughter;fontSource=https%3A%2F%2Ffonts.googleapis.com%2Fcss%3Ffamily%3DArchitects%2BDaughter;fontSize=20;" parent="1" vertex="1">
          <mxGeometry x="220" y="1220" width="30" height="60" as="geometry" />
        </mxCell>
        <mxCell id="kaxkpDlLBg27UVqNhbUt-15" style="edgeStyle=orthogonalEdgeStyle;rounded=0;sketch=1;hachureGap=4;jiggle=2;curveFitting=1;orthogonalLoop=1;jettySize=auto;html=1;entryX=0;entryY=0.5;entryDx=0;entryDy=0;fontFamily=Architects Daughter;fontSource=https%3A%2F%2Ffonts.googleapis.com%2Fcss%3Ffamily%3DArchitects%2BDaughter;fontSize=16;" edge="1" parent="1" source="mxHuWwbCeUmmDX6fSX2f-27" target="mxHuWwbCeUmmDX6fSX2f-35">
          <mxGeometry relative="1" as="geometry" />
        </mxCell>
        <mxCell id="kaxkpDlLBg27UVqNhbUt-16" value="withdrawCollateral()" style="edgeLabel;html=1;align=center;verticalAlign=middle;resizable=0;points=[];fontSize=20;fontFamily=Architects Daughter;" vertex="1" connectable="0" parent="kaxkpDlLBg27UVqNhbUt-15">
          <mxGeometry x="0.0571" y="2" relative="1" as="geometry">
            <mxPoint as="offset" />
          </mxGeometry>
        </mxCell>
        <mxCell id="kaxkpDlLBg27UVqNhbUt-17" style="edgeStyle=orthogonalEdgeStyle;rounded=0;sketch=1;hachureGap=4;jiggle=2;curveFitting=1;orthogonalLoop=1;jettySize=auto;html=1;fontFamily=Architects Daughter;fontSource=https%3A%2F%2Ffonts.googleapis.com%2Fcss%3Ffamily%3DArchitects%2BDaughter;fontSize=16;" edge="1" parent="1" source="mxHuWwbCeUmmDX6fSX2f-27" target="kaxkpDlLBg27UVqNhbUt-4">
          <mxGeometry relative="1" as="geometry" />
        </mxCell>
        <mxCell id="kaxkpDlLBg27UVqNhbUt-18" value="sellExactIn(collatera)" style="edgeLabel;html=1;align=center;verticalAlign=middle;resizable=0;points=[];fontSize=20;fontFamily=Architects Daughter;" vertex="1" connectable="0" parent="kaxkpDlLBg27UVqNhbUt-17">
          <mxGeometry x="0.5189" y="1" relative="1" as="geometry">
            <mxPoint as="offset" />
          </mxGeometry>
        </mxCell>
        <mxCell id="kaxkpDlLBg27UVqNhbUt-19" style="edgeStyle=orthogonalEdgeStyle;rounded=0;sketch=1;hachureGap=4;jiggle=2;curveFitting=1;orthogonalLoop=1;jettySize=auto;html=1;entryX=0.5;entryY=1;entryDx=0;entryDy=0;fontFamily=Architects Daughter;fontSource=https%3A%2F%2Ffonts.googleapis.com%2Fcss%3Ffamily%3DArchitects%2BDaughter;fontSize=16;" edge="1" parent="1" source="mxHuWwbCeUmmDX6fSX2f-27" target="mxHuWwbCeUmmDX6fSX2f-35">
          <mxGeometry relative="1" as="geometry" />
        </mxCell>
        <mxCell id="kaxkpDlLBg27UVqNhbUt-20" value="depositUsd()" style="edgeLabel;html=1;align=center;verticalAlign=middle;resizable=0;points=[];fontSize=20;fontFamily=Architects Daughter;" vertex="1" connectable="0" parent="kaxkpDlLBg27UVqNhbUt-19">
          <mxGeometry x="0.5677" y="-4" relative="1" as="geometry">
            <mxPoint as="offset" />
          </mxGeometry>
        </mxCell>
        <mxCell id="kaxkpDlLBg27UVqNhbUt-21" style="edgeStyle=orthogonalEdgeStyle;rounded=0;sketch=1;hachureGap=4;jiggle=2;curveFitting=1;orthogonalLoop=1;jettySize=auto;html=1;fontFamily=Architects Daughter;fontSource=https%3A%2F%2Ffonts.googleapis.com%2Fcss%3Ffamily%3DArchitects%2BDaughter;fontSize=16;" edge="1" parent="1" source="mxHuWwbCeUmmDX6fSX2f-27" target="kaxkpDlLBg27UVqNhbUt-5">
          <mxGeometry relative="1" as="geometry" />
        </mxCell>
        <mxCell id="kaxkpDlLBg27UVqNhbUt-22" value="transfer(keeperFee)" style="edgeLabel;html=1;align=center;verticalAlign=middle;resizable=0;points=[];fontSize=20;fontFamily=Architects Daughter;" vertex="1" connectable="0" parent="kaxkpDlLBg27UVqNhbUt-21">
          <mxGeometry x="0.3895" y="1" relative="1" as="geometry">
            <mxPoint as="offset" />
          </mxGeometry>
        </mxCell>
        <mxCell id="kaxkpDlLBg27UVqNhbUt-23" style="edgeStyle=orthogonalEdgeStyle;rounded=0;sketch=1;hachureGap=4;jiggle=2;curveFitting=1;orthogonalLoop=1;jettySize=auto;html=1;entryX=0.5;entryY=0.5;entryDx=0;entryDy=0;entryPerimeter=0;fontFamily=Architects Daughter;fontSource=https%3A%2F%2Ffonts.googleapis.com%2Fcss%3Ffamily%3DArchitects%2BDaughter;fontSize=16;" edge="1" parent="1" source="mxHuWwbCeUmmDX6fSX2f-27" target="mxHuWwbCeUmmDX6fSX2f-22">
          <mxGeometry relative="1" as="geometry">
            <Array as="points">
              <mxPoint x="90" y="1550" />
              <mxPoint x="90" y="1250" />
            </Array>
          </mxGeometry>
        </mxCell>
        <mxCell id="kaxkpDlLBg27UVqNhbUt-24" value="transfer(liqReward)" style="edgeLabel;html=1;align=center;verticalAlign=middle;resizable=0;points=[];fontSize=20;fontFamily=Architects Daughter;" vertex="1" connectable="0" parent="kaxkpDlLBg27UVqNhbUt-23">
          <mxGeometry x="0.2762" y="2" relative="1" as="geometry">
            <mxPoint x="2" y="-11" as="offset" />
          </mxGeometry>
        </mxCell>
        <mxCell id="mxHuWwbCeUmmDX6fSX2f-27" value="&lt;font style=&quot;font-size: 18px;&quot;&gt;bfp market&lt;/font&gt;" style="rounded=0;whiteSpace=wrap;html=1;sketch=1;hachureGap=4;jiggle=2;curveFitting=1;fontFamily=Architects Daughter;fontSource=https%3A%2F%2Ffonts.googleapis.com%2Fcss%3Ffamily%3DArchitects%2BDaughter;fontSize=20;" parent="1" vertex="1">
          <mxGeometry x="380" y="1520" width="120" height="60" as="geometry" />
        </mxCell>
        <mxCell id="mxHuWwbCeUmmDX6fSX2f-28" style="edgeStyle=orthogonalEdgeStyle;rounded=0;sketch=1;hachureGap=4;jiggle=2;curveFitting=1;orthogonalLoop=1;jettySize=auto;html=1;entryX=0.5;entryY=1;entryDx=0;entryDy=0;fontFamily=Architects Daughter;fontSource=https%3A%2F%2Ffonts.googleapis.com%2Fcss%3Ffamily%3DArchitects%2BDaughter;fontSize=16;" parent="1" source="mxHuWwbCeUmmDX6fSX2f-30" target="mxHuWwbCeUmmDX6fSX2f-33" edge="1">
          <mxGeometry relative="1" as="geometry" />
        </mxCell>
        <mxCell id="mxHuWwbCeUmmDX6fSX2f-29" value="deposit snx" style="edgeLabel;html=1;align=center;verticalAlign=middle;resizable=0;points=[];fontSize=20;fontFamily=Architects Daughter;" parent="mxHuWwbCeUmmDX6fSX2f-28" vertex="1" connectable="0">
          <mxGeometry x="-0.0972" y="-3" relative="1" as="geometry">
            <mxPoint as="offset" />
          </mxGeometry>
        </mxCell>
        <mxCell id="mxHuWwbCeUmmDX6fSX2f-30" value="lp" style="shape=umlActor;verticalLabelPosition=bottom;verticalAlign=top;html=1;outlineConnect=0;sketch=1;hachureGap=4;jiggle=2;curveFitting=1;fontFamily=Architects Daughter;fontSource=https%3A%2F%2Ffonts.googleapis.com%2Fcss%3Ffamily%3DArchitects%2BDaughter;fontSize=20;" parent="1" vertex="1">
          <mxGeometry x="425" y="1880" width="30" height="60" as="geometry" />
        </mxCell>
        <mxCell id="mxHuWwbCeUmmDX6fSX2f-31" style="edgeStyle=orthogonalEdgeStyle;rounded=0;sketch=1;hachureGap=4;jiggle=2;curveFitting=1;orthogonalLoop=1;jettySize=auto;html=1;entryX=0.5;entryY=1;entryDx=0;entryDy=0;fontFamily=Architects Daughter;fontSource=https%3A%2F%2Ffonts.googleapis.com%2Fcss%3Ffamily%3DArchitects%2BDaughter;fontSize=16;" parent="1" source="mxHuWwbCeUmmDX6fSX2f-33" target="mxHuWwbCeUmmDX6fSX2f-27" edge="1">
          <mxGeometry relative="1" as="geometry" />
        </mxCell>
        <mxCell id="mxHuWwbCeUmmDX6fSX2f-32" value="credit/debt" style="edgeLabel;html=1;align=center;verticalAlign=middle;resizable=0;points=[];fontSize=20;fontFamily=Architects Daughter;" parent="mxHuWwbCeUmmDX6fSX2f-31" vertex="1" connectable="0">
          <mxGeometry x="-0.2375" y="-2" relative="1" as="geometry">
            <mxPoint x="19" y="-2" as="offset" />
          </mxGeometry>
        </mxCell>
        <mxCell id="mxHuWwbCeUmmDX6fSX2f-33" value="pool" style="rounded=0;whiteSpace=wrap;html=1;sketch=1;hachureGap=4;jiggle=2;curveFitting=1;fontFamily=Architects Daughter;fontSource=https%3A%2F%2Ffonts.googleapis.com%2Fcss%3Ffamily%3DArchitects%2BDaughter;fontSize=20;" parent="1" vertex="1">
          <mxGeometry x="380" y="1720" width="120" height="60" as="geometry" />
        </mxCell>
        <mxCell id="mxHuWwbCeUmmDX6fSX2f-35" value="&lt;span style=&quot;font-size: 18px;&quot;&gt;snx core&lt;/span&gt;" style="rounded=0;whiteSpace=wrap;html=1;sketch=1;hachureGap=4;jiggle=2;curveFitting=1;fontFamily=Architects Daughter;fontSource=https%3A%2F%2Ffonts.googleapis.com%2Fcss%3Ffamily%3DArchitects%2BDaughter;fontSize=20;" parent="1" vertex="1">
          <mxGeometry x="630" y="1370" width="120" height="60" as="geometry" />
        </mxCell>
        <mxCell id="mxHuWwbCeUmmDX6fSX2f-36" style="edgeStyle=orthogonalEdgeStyle;rounded=0;sketch=1;hachureGap=4;jiggle=2;curveFitting=1;orthogonalLoop=1;jettySize=auto;html=1;fontFamily=Architects Daughter;fontSource=https%3A%2F%2Ffonts.googleapis.com%2Fcss%3Ffamily%3DArchitects%2BDaughter;fontSize=16;" parent="1" source="mxHuWwbCeUmmDX6fSX2f-40" target="mxHuWwbCeUmmDX6fSX2f-45" edge="1">
          <mxGeometry relative="1" as="geometry" />
        </mxCell>
        <mxCell id="mxHuWwbCeUmmDX6fSX2f-37" value="openPosition" style="edgeLabel;html=1;align=center;verticalAlign=middle;resizable=0;points=[];fontSize=20;fontFamily=Architects Daughter;" parent="mxHuWwbCeUmmDX6fSX2f-36" vertex="1" connectable="0">
          <mxGeometry x="-0.3478" y="-2" relative="1" as="geometry">
            <mxPoint x="49" y="-2" as="offset" />
          </mxGeometry>
        </mxCell>
        <mxCell id="mxHuWwbCeUmmDX6fSX2f-38" style="edgeStyle=orthogonalEdgeStyle;rounded=0;sketch=1;hachureGap=4;jiggle=2;curveFitting=1;orthogonalLoop=1;jettySize=auto;html=1;entryX=0.575;entryY=1.017;entryDx=0;entryDy=0;entryPerimeter=0;fontFamily=Architects Daughter;fontSource=https%3A%2F%2Ffonts.googleapis.com%2Fcss%3Ffamily%3DArchitects%2BDaughter;fontSize=16;" parent="1" source="mxHuWwbCeUmmDX6fSX2f-40" target="mxHuWwbCeUmmDX6fSX2f-45" edge="1">
          <mxGeometry relative="1" as="geometry">
            <Array as="points">
              <mxPoint x="350" y="2375" />
              <mxPoint x="700" y="2375" />
              <mxPoint x="700" y="2256" />
            </Array>
          </mxGeometry>
        </mxCell>
        <mxCell id="mxHuWwbCeUmmDX6fSX2f-39" value="closePosition" style="edgeLabel;html=1;align=center;verticalAlign=middle;resizable=0;points=[];fontSize=20;fontFamily=Architects Daughter;" parent="mxHuWwbCeUmmDX6fSX2f-38" vertex="1" connectable="0">
          <mxGeometry x="-0.2197" y="3" relative="1" as="geometry">
            <mxPoint x="49" as="offset" />
          </mxGeometry>
        </mxCell>
        <mxCell id="mxHuWwbCeUmmDX6fSX2f-40" value="trader" style="shape=umlActor;verticalLabelPosition=bottom;verticalAlign=top;html=1;outlineConnect=0;sketch=1;hachureGap=4;jiggle=2;curveFitting=1;fontFamily=Architects Daughter;fontSource=https%3A%2F%2Ffonts.googleapis.com%2Fcss%3Ffamily%3DArchitects%2BDaughter;fontSize=20;" parent="1" vertex="1">
          <mxGeometry x="330" y="2195" width="30" height="60" as="geometry" />
        </mxCell>
        <mxCell id="mxHuWwbCeUmmDX6fSX2f-43" style="edgeStyle=orthogonalEdgeStyle;rounded=0;sketch=1;hachureGap=4;jiggle=2;curveFitting=1;orthogonalLoop=1;jettySize=auto;html=1;entryX=0;entryY=0.3333333333333333;entryDx=0;entryDy=0;entryPerimeter=0;fontFamily=Architects Daughter;fontSource=https%3A%2F%2Ffonts.googleapis.com%2Fcss%3Ffamily%3DArchitects%2BDaughter;fontSize=16;" parent="1" source="mxHuWwbCeUmmDX6fSX2f-45" target="mxHuWwbCeUmmDX6fSX2f-40" edge="1">
          <mxGeometry relative="1" as="geometry">
            <Array as="points">
              <mxPoint x="730" y="2425" />
              <mxPoint x="280" y="2425" />
              <mxPoint x="280" y="2215" />
            </Array>
          </mxGeometry>
        </mxCell>
        <mxCell id="mxHuWwbCeUmmDX6fSX2f-44" value="transfer(swsteth + sUSD profit)" style="edgeLabel;html=1;align=center;verticalAlign=middle;resizable=0;points=[];fontSize=20;fontFamily=Architects Daughter;" parent="mxHuWwbCeUmmDX6fSX2f-43" vertex="1" connectable="0">
          <mxGeometry x="-0.0705" y="2" relative="1" as="geometry">
            <mxPoint x="33" as="offset" />
          </mxGeometry>
        </mxCell>
        <mxCell id="mxHuWwbCeUmmDX6fSX2f-45" value="&lt;font style=&quot;font-size: 18px;&quot;&gt;bfp market&lt;/font&gt;" style="rounded=0;whiteSpace=wrap;html=1;sketch=1;hachureGap=4;jiggle=2;curveFitting=1;fontFamily=Architects Daughter;fontSource=https%3A%2F%2Ffonts.googleapis.com%2Fcss%3Ffamily%3DArchitects%2BDaughter;fontSize=20;" parent="1" vertex="1">
          <mxGeometry x="670" y="2195" width="120" height="60" as="geometry" />
        </mxCell>
        <mxCell id="mxHuWwbCeUmmDX6fSX2f-46" value="... time passes (with profits)" style="text;html=1;strokeColor=none;fillColor=none;align=center;verticalAlign=middle;whiteSpace=wrap;rounded=0;fontSize=20;fontFamily=Architects Daughter;fontStyle=2" parent="1" vertex="1">
          <mxGeometry x="389" y="2285" width="270" height="30" as="geometry" />
        </mxCell>
        <mxCell id="mxHuWwbCeUmmDX6fSX2f-47" style="edgeStyle=orthogonalEdgeStyle;rounded=0;sketch=1;hachureGap=4;jiggle=2;curveFitting=1;orthogonalLoop=1;jettySize=auto;html=1;fontFamily=Architects Daughter;fontSource=https%3A%2F%2Ffonts.googleapis.com%2Fcss%3Ffamily%3DArchitects%2BDaughter;fontSize=16;" parent="1" edge="1">
          <mxGeometry relative="1" as="geometry">
            <mxPoint x="1030" y="2224.5" as="sourcePoint" />
            <mxPoint x="790" y="2224.5" as="targetPoint" />
          </mxGeometry>
        </mxCell>
        <mxCell id="mxHuWwbCeUmmDX6fSX2f-48" value="withdrawlUsd()" style="edgeLabel;html=1;align=center;verticalAlign=middle;resizable=0;points=[];fontSize=20;fontFamily=Architects Daughter;" parent="mxHuWwbCeUmmDX6fSX2f-47" vertex="1" connectable="0">
          <mxGeometry x="0.4083" y="-2" relative="1" as="geometry">
            <mxPoint x="49" as="offset" />
          </mxGeometry>
        </mxCell>
        <mxCell id="mxHuWwbCeUmmDX6fSX2f-51" value="core" style="rounded=0;whiteSpace=wrap;html=1;sketch=1;hachureGap=4;jiggle=2;curveFitting=1;fontFamily=Architects Daughter;fontSource=https%3A%2F%2Ffonts.googleapis.com%2Fcss%3Ffamily%3DArchitects%2BDaughter;fontSize=20;" parent="1" vertex="1">
          <mxGeometry x="1030" y="2195" width="120" height="60" as="geometry" />
        </mxCell>
        <mxCell id="mxHuWwbCeUmmDX6fSX2f-53" style="edgeStyle=orthogonalEdgeStyle;rounded=0;sketch=1;hachureGap=4;jiggle=2;curveFitting=1;orthogonalLoop=1;jettySize=auto;html=1;fontFamily=Architects Daughter;fontSource=https%3A%2F%2Ffonts.googleapis.com%2Fcss%3Ffamily%3DArchitects%2BDaughter;fontSize=16;" parent="1" source="mxHuWwbCeUmmDX6fSX2f-57" target="mxHuWwbCeUmmDX6fSX2f-62" edge="1">
          <mxGeometry relative="1" as="geometry" />
        </mxCell>
        <mxCell id="mxHuWwbCeUmmDX6fSX2f-54" value="openPosition" style="edgeLabel;html=1;align=center;verticalAlign=middle;resizable=0;points=[];fontSize=20;fontFamily=Architects Daughter;" parent="mxHuWwbCeUmmDX6fSX2f-53" vertex="1" connectable="0">
          <mxGeometry x="-0.3478" y="-2" relative="1" as="geometry">
            <mxPoint x="49" y="-2" as="offset" />
          </mxGeometry>
        </mxCell>
        <mxCell id="mxHuWwbCeUmmDX6fSX2f-55" style="edgeStyle=orthogonalEdgeStyle;rounded=0;sketch=1;hachureGap=4;jiggle=2;curveFitting=1;orthogonalLoop=1;jettySize=auto;html=1;entryX=0.575;entryY=1.017;entryDx=0;entryDy=0;entryPerimeter=0;fontFamily=Architects Daughter;fontSource=https%3A%2F%2Ffonts.googleapis.com%2Fcss%3Ffamily%3DArchitects%2BDaughter;fontSize=16;" parent="1" source="mxHuWwbCeUmmDX6fSX2f-57" target="mxHuWwbCeUmmDX6fSX2f-62" edge="1">
          <mxGeometry relative="1" as="geometry">
            <Array as="points">
              <mxPoint x="240" y="2960" />
              <mxPoint x="590" y="2960" />
              <mxPoint x="590" y="2841" />
            </Array>
          </mxGeometry>
        </mxCell>
        <mxCell id="mxHuWwbCeUmmDX6fSX2f-56" value="closePosition" style="edgeLabel;html=1;align=center;verticalAlign=middle;resizable=0;points=[];fontSize=20;fontFamily=Architects Daughter;" parent="mxHuWwbCeUmmDX6fSX2f-55" vertex="1" connectable="0">
          <mxGeometry x="-0.2197" y="3" relative="1" as="geometry">
            <mxPoint x="49" as="offset" />
          </mxGeometry>
        </mxCell>
        <mxCell id="mxHuWwbCeUmmDX6fSX2f-57" value="trader" style="shape=umlActor;verticalLabelPosition=bottom;verticalAlign=top;html=1;outlineConnect=0;sketch=1;hachureGap=4;jiggle=2;curveFitting=1;fontFamily=Architects Daughter;fontSource=https%3A%2F%2Ffonts.googleapis.com%2Fcss%3Ffamily%3DArchitects%2BDaughter;fontSize=20;" parent="1" vertex="1">
          <mxGeometry x="220" y="2780" width="30" height="60" as="geometry" />
        </mxCell>
        <mxCell id="mxHuWwbCeUmmDX6fSX2f-60" style="edgeStyle=orthogonalEdgeStyle;rounded=0;sketch=1;hachureGap=4;jiggle=2;curveFitting=1;orthogonalLoop=1;jettySize=auto;html=1;entryX=0;entryY=0.3333333333333333;entryDx=0;entryDy=0;entryPerimeter=0;fontFamily=Architects Daughter;fontSource=https%3A%2F%2Ffonts.googleapis.com%2Fcss%3Ffamily%3DArchitects%2BDaughter;fontSize=16;" parent="1" source="mxHuWwbCeUmmDX6fSX2f-62" target="mxHuWwbCeUmmDX6fSX2f-57" edge="1">
          <mxGeometry relative="1" as="geometry">
            <Array as="points">
              <mxPoint x="620" y="3010" />
              <mxPoint x="170" y="3010" />
              <mxPoint x="170" y="2800" />
            </Array>
          </mxGeometry>
        </mxCell>
        <mxCell id="mxHuWwbCeUmmDX6fSX2f-61" value="transfer(remaining swsteth)" style="edgeLabel;html=1;align=center;verticalAlign=middle;resizable=0;points=[];fontSize=20;fontFamily=Architects Daughter;" parent="mxHuWwbCeUmmDX6fSX2f-60" vertex="1" connectable="0">
          <mxGeometry x="-0.0705" y="2" relative="1" as="geometry">
            <mxPoint x="19" as="offset" />
          </mxGeometry>
        </mxCell>
        <mxCell id="kaxkpDlLBg27UVqNhbUt-39" style="edgeStyle=orthogonalEdgeStyle;rounded=0;sketch=1;hachureGap=4;jiggle=2;curveFitting=1;orthogonalLoop=1;jettySize=auto;html=1;entryX=0;entryY=0.5;entryDx=0;entryDy=0;fontFamily=Architects Daughter;fontSource=https%3A%2F%2Ffonts.googleapis.com%2Fcss%3Ffamily%3DArchitects%2BDaughter;fontSize=16;" edge="1" parent="1" source="mxHuWwbCeUmmDX6fSX2f-62" target="kaxkpDlLBg27UVqNhbUt-37">
          <mxGeometry relative="1" as="geometry">
            <Array as="points">
              <mxPoint x="710" y="2810" />
              <mxPoint x="710" y="2970" />
            </Array>
          </mxGeometry>
        </mxCell>
        <mxCell id="kaxkpDlLBg27UVqNhbUt-40" value="sellExactIn(partialCollateral)" style="edgeLabel;html=1;align=center;verticalAlign=middle;resizable=0;points=[];fontSize=20;fontFamily=Architects Daughter;" vertex="1" connectable="0" parent="kaxkpDlLBg27UVqNhbUt-39">
          <mxGeometry x="0.235" y="1" relative="1" as="geometry">
            <mxPoint x="-6" y="-29" as="offset" />
          </mxGeometry>
        </mxCell>
        <mxCell id="kaxkpDlLBg27UVqNhbUt-41" style="edgeStyle=orthogonalEdgeStyle;rounded=0;sketch=1;hachureGap=4;jiggle=2;curveFitting=1;orthogonalLoop=1;jettySize=auto;html=1;entryX=0.5;entryY=0;entryDx=0;entryDy=0;fontFamily=Architects Daughter;fontSource=https%3A%2F%2Ffonts.googleapis.com%2Fcss%3Ffamily%3DArchitects%2BDaughter;fontSize=16;" edge="1" parent="1" source="mxHuWwbCeUmmDX6fSX2f-62" target="kaxkpDlLBg27UVqNhbUt-36">
          <mxGeometry relative="1" as="geometry">
            <Array as="points">
              <mxPoint x="620" y="2763" />
              <mxPoint x="980" y="2763" />
            </Array>
          </mxGeometry>
        </mxCell>
        <mxCell id="kaxkpDlLBg27UVqNhbUt-42" value="depositUsd()" style="edgeLabel;html=1;align=center;verticalAlign=middle;resizable=0;points=[];fontSize=20;fontFamily=Architects Daughter;" vertex="1" connectable="0" parent="kaxkpDlLBg27UVqNhbUt-41">
          <mxGeometry x="-0.1587" y="1" relative="1" as="geometry">
            <mxPoint x="30" as="offset" />
          </mxGeometry>
        </mxCell>
        <mxCell id="kaxkpDlLBg27UVqNhbUt-43" style="edgeStyle=orthogonalEdgeStyle;rounded=0;sketch=1;hachureGap=4;jiggle=2;curveFitting=1;orthogonalLoop=1;jettySize=auto;html=1;fontFamily=Architects Daughter;fontSource=https%3A%2F%2Ffonts.googleapis.com%2Fcss%3Ffamily%3DArchitects%2BDaughter;fontSize=16;" edge="1" parent="1" source="mxHuWwbCeUmmDX6fSX2f-62" target="kaxkpDlLBg27UVqNhbUt-36">
          <mxGeometry relative="1" as="geometry" />
        </mxCell>
        <mxCell id="kaxkpDlLBg27UVqNhbUt-44" value="withdrawlCollateral()" style="edgeLabel;html=1;align=center;verticalAlign=middle;resizable=0;points=[];fontSize=20;fontFamily=Architects Daughter;" vertex="1" connectable="0" parent="kaxkpDlLBg27UVqNhbUt-43">
          <mxGeometry x="-0.1778" y="5" relative="1" as="geometry">
            <mxPoint x="29" y="5" as="offset" />
          </mxGeometry>
        </mxCell>
        <mxCell id="mxHuWwbCeUmmDX6fSX2f-62" value="&lt;font style=&quot;font-size: 18px;&quot;&gt;bfp market&lt;/font&gt;" style="rounded=0;whiteSpace=wrap;html=1;sketch=1;hachureGap=4;jiggle=2;curveFitting=1;fontFamily=Architects Daughter;fontSource=https%3A%2F%2Ffonts.googleapis.com%2Fcss%3Ffamily%3DArchitects%2BDaughter;fontSize=20;" parent="1" vertex="1">
          <mxGeometry x="560" y="2780" width="120" height="60" as="geometry" />
        </mxCell>
        <mxCell id="mxHuWwbCeUmmDX6fSX2f-63" value="time passes (with losses)" style="text;html=1;strokeColor=none;fillColor=none;align=center;verticalAlign=middle;whiteSpace=wrap;rounded=0;fontSize=20;fontFamily=Architects Daughter;fontStyle=2" parent="1" vertex="1">
          <mxGeometry x="279" y="2870" width="270" height="30" as="geometry" />
        </mxCell>
        <mxCell id="kaxkpDlLBg27UVqNhbUt-1" value="open position" style="text;html=1;strokeColor=none;fillColor=none;align=center;verticalAlign=middle;whiteSpace=wrap;rounded=0;fontSize=20;fontFamily=Architects Daughter;" vertex="1" parent="1">
          <mxGeometry x="347.5" y="609.91" width="145" height="30" as="geometry" />
        </mxCell>
        <mxCell id="kaxkpDlLBg27UVqNhbUt-3" value="liquidations" style="text;html=1;strokeColor=none;fillColor=none;align=center;verticalAlign=middle;whiteSpace=wrap;rounded=0;fontSize=20;fontFamily=Architects Daughter;" vertex="1" parent="1">
          <mxGeometry x="400" y="1180" width="60" height="30" as="geometry" />
        </mxCell>
        <mxCell id="kaxkpDlLBg27UVqNhbUt-4" value="spot market" style="rounded=0;whiteSpace=wrap;html=1;sketch=1;hachureGap=4;jiggle=2;curveFitting=1;fontFamily=Architects Daughter;fontSource=https%3A%2F%2Ffonts.googleapis.com%2Fcss%3Ffamily%3DArchitects%2BDaughter;fontSize=20;" vertex="1" parent="1">
          <mxGeometry x="630" y="1720" width="120" height="60" as="geometry" />
        </mxCell>
        <mxCell id="kaxkpDlLBg27UVqNhbUt-8" style="edgeStyle=orthogonalEdgeStyle;rounded=0;sketch=1;hachureGap=4;jiggle=2;curveFitting=1;orthogonalLoop=1;jettySize=auto;html=1;fontFamily=Architects Daughter;fontSource=https%3A%2F%2Ffonts.googleapis.com%2Fcss%3Ffamily%3DArchitects%2BDaughter;fontSize=16;" edge="1" parent="1" source="kaxkpDlLBg27UVqNhbUt-5" target="mxHuWwbCeUmmDX6fSX2f-27">
          <mxGeometry relative="1" as="geometry" />
        </mxCell>
        <mxCell id="kaxkpDlLBg27UVqNhbUt-9" value="liquidate(id)" style="edgeLabel;html=1;align=center;verticalAlign=middle;resizable=0;points=[];fontSize=20;fontFamily=Architects Daughter;" vertex="1" connectable="0" parent="kaxkpDlLBg27UVqNhbUt-8">
          <mxGeometry x="-0.6121" y="-1" relative="1" as="geometry">
            <mxPoint x="46" y="-1" as="offset" />
          </mxGeometry>
        </mxCell>
        <mxCell id="kaxkpDlLBg27UVqNhbUt-5" value="liquidator" style="shape=umlActor;verticalLabelPosition=bottom;verticalAlign=top;html=1;outlineConnect=0;sketch=1;hachureGap=4;jiggle=2;curveFitting=1;fontFamily=Architects Daughter;fontSource=https%3A%2F%2Ffonts.googleapis.com%2Fcss%3Ffamily%3DArchitects%2BDaughter;fontSize=20;" vertex="1" parent="1">
          <mxGeometry x="220" y="1350" width="30" height="60" as="geometry" />
        </mxCell>
        <mxCell id="kaxkpDlLBg27UVqNhbUt-25" value="trader profitable position" style="text;html=1;strokeColor=none;fillColor=none;align=center;verticalAlign=middle;whiteSpace=wrap;rounded=0;fontSize=20;fontFamily=Architects Daughter;" vertex="1" parent="1">
          <mxGeometry x="595" y="2117" width="270" height="30" as="geometry" />
        </mxCell>
        <mxCell id="kaxkpDlLBg27UVqNhbUt-28" value="&lt;p style=&quot;line-height: 120%;&quot;&gt;spot market&lt;/p&gt;" style="rounded=0;whiteSpace=wrap;html=1;sketch=1;hachureGap=4;jiggle=2;curveFitting=1;fontFamily=Architects Daughter;fontSource=https%3A%2F%2Ffonts.googleapis.com%2Fcss%3Ffamily%3DArchitects%2BDaughter;fontSize=20;" vertex="1" parent="1">
          <mxGeometry x="360" y="670" width="120" height="60" as="geometry" />
        </mxCell>
        <mxCell id="kaxkpDlLBg27UVqNhbUt-34" value="trader loss position" style="text;html=1;strokeColor=none;fillColor=none;align=center;verticalAlign=middle;whiteSpace=wrap;rounded=0;fontSize=20;fontFamily=Architects Daughter;" vertex="1" parent="1">
          <mxGeometry x="485" y="2670" width="270" height="30" as="geometry" />
        </mxCell>
        <mxCell id="kaxkpDlLBg27UVqNhbUt-36" value="core&lt;br&gt;" style="rounded=0;whiteSpace=wrap;html=1;sketch=1;hachureGap=4;jiggle=2;curveFitting=1;fontFamily=Architects Daughter;fontSource=https%3A%2F%2Ffonts.googleapis.com%2Fcss%3Ffamily%3DArchitects%2BDaughter;fontSize=20;" vertex="1" parent="1">
          <mxGeometry x="950" y="2780" width="120" height="60" as="geometry" />
        </mxCell>
        <mxCell id="kaxkpDlLBg27UVqNhbUt-37" value="spot market" style="rounded=0;whiteSpace=wrap;html=1;sketch=1;hachureGap=4;jiggle=2;curveFitting=1;fontFamily=Architects Daughter;fontSource=https%3A%2F%2Ffonts.googleapis.com%2Fcss%3Ffamily%3DArchitects%2BDaughter;fontSize=20;" vertex="1" parent="1">
          <mxGeometry x="950" y="2940" width="120" height="60" as="geometry" />
        </mxCell>
      </root>
    </mxGraphModel>
  </diagram>
  <diagram id="gvwBkHPlpZwp6ti6Bxab" name="Page-2">
    <mxGraphModel dx="2901" dy="1125" grid="1" gridSize="10" guides="1" tooltips="1" connect="1" arrows="1" fold="1" page="1" pageScale="1" pageWidth="827" pageHeight="1169" math="0" shadow="0">
      <root>
        <mxCell id="0" />
        <mxCell id="1" parent="0" />
        <mxCell id="4SVdFESqtCYXMEAtfZR7-1" value="" style="rounded=0;whiteSpace=wrap;html=1;sketch=1;hachureGap=4;jiggle=2;curveFitting=1;fontFamily=Architects Daughter;fontSource=https%3A%2F%2Ffonts.googleapis.com%2Fcss%3Ffamily%3DArchitects%2BDaughter;fontSize=20;" vertex="1" parent="1">
          <mxGeometry x="-50" y="300" width="930" height="530" as="geometry" />
        </mxCell>
        <mxCell id="4SVdFESqtCYXMEAtfZR7-2" style="edgeStyle=orthogonalEdgeStyle;rounded=0;sketch=1;hachureGap=4;jiggle=2;curveFitting=1;orthogonalLoop=1;jettySize=auto;html=1;entryX=0;entryY=0.5;entryDx=0;entryDy=0;fontFamily=Architects Daughter;fontSource=https%3A%2F%2Ffonts.googleapis.com%2Fcss%3Ffamily%3DArchitects%2BDaughter;fontSize=16;" edge="1" parent="1" source="4SVdFESqtCYXMEAtfZR7-8" target="4SVdFESqtCYXMEAtfZR7-11">
          <mxGeometry relative="1" as="geometry">
            <Array as="points">
              <mxPoint x="15" y="430" />
              <mxPoint x="15" y="580" />
            </Array>
          </mxGeometry>
        </mxCell>
        <mxCell id="4SVdFESqtCYXMEAtfZR7-3" value="deposit(swsteth)" style="edgeLabel;html=1;align=center;verticalAlign=middle;resizable=0;points=[];fontSize=20;fontFamily=Architects Daughter;" vertex="1" connectable="0" parent="4SVdFESqtCYXMEAtfZR7-2">
          <mxGeometry x="0.0246" y="-2" relative="1" as="geometry">
            <mxPoint x="158" y="-2" as="offset" />
          </mxGeometry>
        </mxCell>
        <mxCell id="4SVdFESqtCYXMEAtfZR7-4" style="edgeStyle=orthogonalEdgeStyle;rounded=0;sketch=1;hachureGap=4;jiggle=2;curveFitting=1;orthogonalLoop=1;jettySize=auto;html=1;fontFamily=Architects Daughter;fontSource=https%3A%2F%2Ffonts.googleapis.com%2Fcss%3Ffamily%3DArchitects%2BDaughter;fontSize=16;" edge="1" parent="1" source="4SVdFESqtCYXMEAtfZR7-8" target="4SVdFESqtCYXMEAtfZR7-11">
          <mxGeometry relative="1" as="geometry">
            <Array as="points">
              <mxPoint x="15" y="430" />
              <mxPoint x="15" y="670" />
              <mxPoint x="415" y="670" />
            </Array>
          </mxGeometry>
        </mxCell>
        <mxCell id="4SVdFESqtCYXMEAtfZR7-5" value="commitOrder(size)" style="edgeLabel;html=1;align=center;verticalAlign=middle;resizable=0;points=[];fontSize=20;fontFamily=Architects Daughter;" vertex="1" connectable="0" parent="4SVdFESqtCYXMEAtfZR7-4">
          <mxGeometry x="0.1306" relative="1" as="geometry">
            <mxPoint x="103" as="offset" />
          </mxGeometry>
        </mxCell>
        <mxCell id="4SVdFESqtCYXMEAtfZR7-6" style="edgeStyle=orthogonalEdgeStyle;rounded=0;sketch=1;hachureGap=4;jiggle=2;curveFitting=1;orthogonalLoop=1;jettySize=auto;html=1;fontFamily=Architects Daughter;fontSource=https%3A%2F%2Ffonts.googleapis.com%2Fcss%3Ffamily%3DArchitects%2BDaughter;fontSize=16;" edge="1" parent="1" source="4SVdFESqtCYXMEAtfZR7-8" target="4SVdFESqtCYXMEAtfZR7-16">
          <mxGeometry relative="1" as="geometry" />
        </mxCell>
        <mxCell id="4SVdFESqtCYXMEAtfZR7-7" value="wrap(wsteth) -&amp;gt; swsteth" style="edgeLabel;html=1;align=center;verticalAlign=middle;resizable=0;points=[];fontSize=20;fontFamily=Architects Daughter;" vertex="1" connectable="0" parent="4SVdFESqtCYXMEAtfZR7-6">
          <mxGeometry x="-0.3316" y="1" relative="1" as="geometry">
            <mxPoint x="33" y="1" as="offset" />
          </mxGeometry>
        </mxCell>
        <mxCell id="4SVdFESqtCYXMEAtfZR7-8" value="trader" style="shape=umlActor;verticalLabelPosition=bottom;verticalAlign=top;html=1;outlineConnect=0;sketch=1;hachureGap=4;jiggle=2;curveFitting=1;fontFamily=Architects Daughter;fontSource=https%3A%2F%2Ffonts.googleapis.com%2Fcss%3Ffamily%3DArchitects%2BDaughter;fontSize=20;" vertex="1" parent="1">
          <mxGeometry x="65" y="400" width="30" height="60" as="geometry" />
        </mxCell>
        <mxCell id="4SVdFESqtCYXMEAtfZR7-9" style="edgeStyle=orthogonalEdgeStyle;rounded=0;sketch=1;hachureGap=4;jiggle=2;curveFitting=1;orthogonalLoop=1;jettySize=auto;html=1;entryX=0.5;entryY=1;entryDx=0;entryDy=0;fontFamily=Architects Daughter;fontSource=https%3A%2F%2Ffonts.googleapis.com%2Fcss%3Ffamily%3DArchitects%2BDaughter;fontSize=16;" edge="1" parent="1" source="4SVdFESqtCYXMEAtfZR7-11" target="4SVdFESqtCYXMEAtfZR7-16">
          <mxGeometry relative="1" as="geometry" />
        </mxCell>
        <mxCell id="4SVdFESqtCYXMEAtfZR7-10" value="integrates" style="edgeLabel;html=1;align=center;verticalAlign=middle;resizable=0;points=[];fontSize=20;fontFamily=Architects Daughter;" vertex="1" connectable="0" parent="4SVdFESqtCYXMEAtfZR7-9">
          <mxGeometry x="-0.0677" y="-3" relative="1" as="geometry">
            <mxPoint as="offset" />
          </mxGeometry>
        </mxCell>
        <mxCell id="4SVdFESqtCYXMEAtfZR7-11" value="&lt;font style=&quot;font-size: 18px;&quot;&gt;bfp market&lt;/font&gt;" style="rounded=0;whiteSpace=wrap;html=1;sketch=1;hachureGap=4;jiggle=2;curveFitting=1;fontFamily=Architects Daughter;fontSource=https%3A%2F%2Ffonts.googleapis.com%2Fcss%3Ffamily%3DArchitects%2BDaughter;fontSize=20;" vertex="1" parent="1">
          <mxGeometry x="355" y="549.91" width="120" height="60" as="geometry" />
        </mxCell>
        <mxCell id="4SVdFESqtCYXMEAtfZR7-12" style="edgeStyle=orthogonalEdgeStyle;rounded=0;sketch=1;hachureGap=4;jiggle=2;curveFitting=1;orthogonalLoop=1;jettySize=auto;html=1;entryX=1;entryY=0.5;entryDx=0;entryDy=0;fontFamily=Architects Daughter;fontSource=https%3A%2F%2Ffonts.googleapis.com%2Fcss%3Ffamily%3DArchitects%2BDaughter;fontSize=16;" edge="1" parent="1" source="4SVdFESqtCYXMEAtfZR7-14" target="4SVdFESqtCYXMEAtfZR7-11">
          <mxGeometry relative="1" as="geometry" />
        </mxCell>
        <mxCell id="4SVdFESqtCYXMEAtfZR7-13" value="settleOrder(id)" style="edgeLabel;html=1;align=center;verticalAlign=middle;resizable=0;points=[];fontSize=20;fontFamily=Architects Daughter;" vertex="1" connectable="0" parent="4SVdFESqtCYXMEAtfZR7-12">
          <mxGeometry x="0.2" y="2" relative="1" as="geometry">
            <mxPoint x="30" y="-2" as="offset" />
          </mxGeometry>
        </mxCell>
        <mxCell id="4SVdFESqtCYXMEAtfZR7-14" value="keeper" style="shape=umlActor;verticalLabelPosition=bottom;verticalAlign=top;html=1;outlineConnect=0;sketch=1;hachureGap=4;jiggle=2;curveFitting=1;fontFamily=Architects Daughter;fontSource=https%3A%2F%2Ffonts.googleapis.com%2Fcss%3Ffamily%3DArchitects%2BDaughter;fontSize=20;" vertex="1" parent="1">
          <mxGeometry x="725" y="549.91" width="30" height="60" as="geometry" />
        </mxCell>
        <mxCell id="4SVdFESqtCYXMEAtfZR7-15" value="open position" style="text;html=1;strokeColor=none;fillColor=none;align=center;verticalAlign=middle;whiteSpace=wrap;rounded=0;fontSize=20;fontFamily=Architects Daughter;" vertex="1" parent="1">
          <mxGeometry x="342.5" y="339.90999999999997" width="145" height="30" as="geometry" />
        </mxCell>
        <mxCell id="4SVdFESqtCYXMEAtfZR7-16" value="&lt;p style=&quot;line-height: 120%;&quot;&gt;spot market&lt;/p&gt;" style="rounded=0;whiteSpace=wrap;html=1;sketch=1;hachureGap=4;jiggle=2;curveFitting=1;fontFamily=Architects Daughter;fontSource=https%3A%2F%2Ffonts.googleapis.com%2Fcss%3Ffamily%3DArchitects%2BDaughter;fontSize=20;" vertex="1" parent="1">
          <mxGeometry x="355" y="400" width="120" height="60" as="geometry" />
        </mxCell>
      </root>
    </mxGraphModel>
  </diagram>
</mxfile>
